<?xml version="1.0" encoding="utf-8"?>
<!-- Generator: Adobe Illustrator 25.4.1, SVG Export Plug-In . SVG Version: 6.00 Build 0)  -->
<svg version="1.1" id="Layer_1" xmlns="http://www.w3.org/2000/svg" xmlns:xlink="http://www.w3.org/1999/xlink" x="0px" y="0px"
	 viewBox="0 0 16 16" style="enable-background:new 0 0 16 16;" xml:space="preserve">
<style type="text/css">
	.st0{fill:#8EEF97;}
</style>
<g id="Layer_1_00000170236641221328944140000001063999480100881822_">
	<path class="st0" d="M11.3,2.6c-0.7-0.7-1.8-0.7-2.5,0L2.6,8.8c-0.7,0.7-0.7,1.8,0,2.5l2.1,2.1c0.7,0.7,1.8,0.7,2.5,0l6.3-6.3
		c0.7-0.7,0.7-1.8,0-2.5L11.3,2.6z M10.1,3.8l2.1,2.1l-1.3,1.3L8.8,5.1L10.1,3.8z M7.6,6.3l2.1,2.1L8.4,9.7L6.3,7.6L7.6,6.3z
		 M5.1,8.8l2.1,2.1l-1.3,1.3l-2.1-2.1L5.1,8.8z"/>
</g>
<g id="Layer_2_00000172438228171227073010000011096948942075396741_">
	<path class="st0" d="M14.4,11.3c-0.3-0.1-0.6-0.3-0.6-0.6v-0.3l-4.5,4.5c-0.3,0.3-0.6,0.3-0.8,0.1c-0.3-0.3-0.3-0.6,0-0.9L13,9.6
		h-0.3c-0.3-0.1-0.6-0.3-0.6-0.6c0.1-0.3,0.3-0.6,0.6-0.6l1.5,0c0.1,0,0.3,0,0.4,0.1c0.1,0.1,0.1,0.1,0.1,0.1
		c0.1,0.1,0.1,0.3,0.1,0.4l0.1,1.6C15,11,14.8,11.3,14.4,11.3z"/>
</g>
<path class="st0" d="M1.4,4.9C1.7,5,2,5.3,2,5.5l0,0.3l4.5-4.5C6.8,1,7.1,1,7.3,1.2c0.3,0.3,0.3,0.6,0,0.9L2.8,6.6h0.3
	c0.3,0.1,0.6,0.3,0.6,0.6C3.6,7.4,3.3,7.7,3.1,7.7l-1.5,0c-0.3,0-0.3-0.1-0.5-0.1C1,7.5,1,7.5,0.9,7.4C0.9,7.4,0.8,7.2,0.8,7.1
	L0.7,5.5C0.8,5.2,1.1,4.9,1.4,4.9z"/>
</svg>
