<?xml version="1.0" encoding="utf-8"?>
<!-- Generator: Adobe Illustrator 25.4.1, SVG Export Plug-In . SVG Version: 6.00 Build 0)  -->
<svg version="1.1" id="Layer_1" xmlns="http://www.w3.org/2000/svg" xmlns:xlink="http://www.w3.org/1999/xlink" x="0px" y="0px"
	 viewBox="0 0 16 16" style="enable-background:new 0 0 16 16;" xml:space="preserve">
<style type="text/css">
	.st0{fill:#8EEF97;}
</style>
<g id="Layer_1_00000170236641221328944140000001063999480100881822_">
	<path class="st0" d="M6.3,1c-1.1,0-2,0.9-2,2v10c0,1.1,0.9,2,2,2h3.4c1.1,0,2-0.9,2-2V3c0-1.1-0.9-2-2-2H6.3z M6.3,3h3.4v2H6.3V3z
		 M6.3,7h3.4v2H6.3V7z M6.3,11h3.4v2H6.3V11z"/>
</g>
<g id="Layer_2_00000172438228171227073010000011096948942075396741_">
	<path class="st0" d="M15.7,5.5c-0.3,0.2-0.7,0.2-0.9,0l-0.2-0.2v7.2c0,0.4-0.3,0.7-0.6,0.7c-0.4,0-0.7-0.3-0.7-0.7V5.3l-0.2,0.2
		c-0.3,0.2-0.7,0.2-0.9,0c-0.2-0.3-0.2-0.7,0-0.9l1.2-1.2c0.1-0.1,0.2-0.2,0.4-0.2c0.1,0,0.1,0,0.2,0c0.1,0,0.3,0.1,0.4,0.2l1.3,1.2
		C16,4.8,16,5.2,15.7,5.5z"/>
</g>
<path class="st0" d="M0.3,10.8c0.3-0.2,0.7-0.2,0.9,0L1.4,11V3.8c0-0.4,0.3-0.7,0.6-0.7c0.4,0,0.7,0.3,0.7,0.7V11l0.2-0.2
	c0.3-0.2,0.7-0.2,0.9,0c0.2,0.3,0.2,0.7,0,0.9l-1.2,1.2c-0.2,0.2-0.3,0.2-0.5,0.3c-0.1,0-0.1,0-0.2,0S1.6,13.1,1.5,13l-1.3-1.2
	C0,11.5,0,11.1,0.3,10.8z"/>
</svg>
