<?xml version="1.0" encoding="utf-8"?>
<!-- Generator: Adobe Illustrator 25.4.1, SVG Export Plug-In . SVG Version: 6.00 Build 0)  -->
<svg version="1.1" id="Layer_1" xmlns="http://www.w3.org/2000/svg" xmlns:xlink="http://www.w3.org/1999/xlink" x="0px" y="0px"
	 viewBox="0 0 16 16" style="enable-background:new 0 0 16 16;" xml:space="preserve">
<style type="text/css">
	.st0{fill:#8EEF97;}
</style>
<g id="Layer_1_00000170236641221328944140000001063999480100881822_">
	<path class="st0" d="M15,6.3c0-1.1-0.9-2-2-2H3c-1.1,0-2,0.9-2,2v3.4c0,1.1,0.9,2,2,2h10c1.1,0,2-0.9,2-2V6.3z M13,6.3v3.4h-2V6.3
		H13z M9,6.3v3.4H7V6.3H9z M5,6.3v3.4H3V6.3H5z"/>
</g>
<g id="Layer_2_00000172438228171227073010000011096948942075396741_">
	<path class="st0" d="M10.5,15.7c-0.2-0.3-0.2-0.7,0-0.9l0.2-0.2H3.5c-0.4,0-0.7-0.3-0.7-0.6c0-0.4,0.3-0.7,0.7-0.7h7.2l-0.2-0.2
		c-0.2-0.3-0.2-0.7,0-0.9c0.3-0.2,0.7-0.2,0.9,0l1.2,1.2c0.1,0.1,0.2,0.2,0.2,0.4c0,0.1,0,0.1,0,0.2c0,0.1-0.1,0.3-0.2,0.4l-1.2,1.3
		C11.2,16,10.8,16,10.5,15.7z"/>
</g>
<path class="st0" d="M5.2,0.3c0.2,0.3,0.2,0.7,0,0.9L5,1.4h7.2c0.4,0,0.7,0.3,0.7,0.6c0,0.4-0.3,0.7-0.7,0.7H5l0.2,0.2
	c0.2,0.3,0.2,0.7,0,0.9C4.9,4,4.5,4,4.3,3.8L3.1,2.6C2.9,2.4,2.9,2.3,2.8,2.1c0-0.1,0-0.1,0-0.2S2.9,1.6,3,1.5l1.2-1.3
	C4.5,0,4.9,0,5.2,0.3z"/>
</svg>
